<svg width="100" height="20" viewBox="0 0 100 20" fill="none" xmlns="http://www.w3.org/2000/svg">
<line y1="9.25" x2="36" y2="9.25" stroke="#FF8C66" stroke-width="1.5" stroke-dasharray="5 5"/>
<path opacity="0.2" d="M56.4015 8.90145L48.9015 16.4015C48.1963 17.0953 47.2455 17.4823 46.2562 17.4783C45.267 17.4742 44.3194 17.0795 43.6198 16.3799C42.9203 15.6804 42.5255 14.7328 42.5215 13.7436C42.5175 12.7543 42.9045 11.8035 43.5983 11.0983L51.0983 3.59833C51.8035 2.90453 52.7543 2.51749 53.7436 2.52152C54.7328 2.52554 55.6804 2.92031 56.3799 3.61983C57.0795 4.31935 57.4742 5.26695 57.4783 6.25621C57.4823 7.24548 57.0953 8.19626 56.4015 8.90145Z" fill="#FF8C66"/>
<path d="M52.9424 7.05813C53.0005 7.11617 53.0466 7.1851 53.0781 7.26098C53.1095 7.33685 53.1257 7.41818 53.1257 7.50032C53.1257 7.58245 53.1095 7.66378 53.0781 7.73965C53.0466 7.81553 53.0005 7.88446 52.9424 7.9425L47.9424 12.9425C47.8843 13.0006 47.8154 13.0466 47.7395 13.0781C47.6637 13.1095 47.5823 13.1257 47.5002 13.1257C47.4181 13.1257 47.3368 13.1095 47.2609 13.0781C47.185 13.0466 47.1161 13.0006 47.058 12.9425C47 12.8844 46.9539 12.8155 46.9225 12.7396C46.8911 12.6638 46.8749 12.5824 46.8749 12.5003C46.8749 12.4182 46.8911 12.3369 46.9225 12.261C46.9539 12.1851 47 12.1162 47.058 12.0581L52.058 7.05813C52.1161 7.00002 52.185 6.95392 52.2609 6.92246C52.3368 6.89101 52.4181 6.87482 52.5002 6.87482C52.5824 6.87482 52.6637 6.89101 52.7396 6.92246C52.8154 6.95392 52.8844 7.00002 52.9424 7.05813ZM56.844 3.15657C56.4377 2.75026 55.9554 2.42796 55.4246 2.20807C54.8937 1.98818 54.3248 1.875 53.7502 1.875C53.1757 1.875 52.6067 1.98818 52.0759 2.20807C51.545 2.42796 51.0627 2.75026 50.6565 3.15657L48.308 5.50422C48.1908 5.6215 48.1249 5.78056 48.1249 5.94641C48.1249 6.11226 48.1908 6.27132 48.308 6.3886C48.4253 6.50587 48.5844 6.57176 48.7502 6.57176C48.9161 6.57176 49.0751 6.50587 49.1924 6.3886L51.5408 4.04485C52.129 3.46957 52.9204 3.14947 53.7431 3.154C54.5658 3.15853 55.3536 3.48733 55.9354 4.06905C56.5172 4.65076 56.8462 5.43846 56.8508 6.26119C56.8555 7.08392 56.5355 7.8753 55.9604 8.4636L53.6112 10.812C53.4939 10.9292 53.428 11.0882 53.4279 11.2539C53.4278 11.4197 53.4936 11.5787 53.6108 11.696C53.7279 11.8133 53.8869 11.8792 54.0527 11.8793C54.2185 11.8794 54.3775 11.8136 54.4948 11.6964L56.844 9.34406C57.2503 8.9378 57.5726 8.45549 57.7925 7.92466C58.0124 7.39383 58.1255 6.82489 58.1255 6.25032C58.1255 5.67574 58.0124 5.1068 57.7925 4.57597C57.5726 4.04514 57.2503 3.56283 56.844 3.15657ZM50.808 13.6113L48.4596 15.9597C48.1706 16.2552 47.8258 16.4904 47.4453 16.6517C47.0648 16.8131 46.656 16.8973 46.2427 16.8996C45.8294 16.9019 45.4197 16.8221 45.0374 16.665C44.6551 16.5079 44.3078 16.2765 44.0156 15.9842C43.7234 15.6919 43.492 15.3445 43.3349 14.9622C43.1779 14.5799 43.0982 14.1702 43.1005 13.7569C43.1029 13.3436 43.1872 12.9348 43.3486 12.5543C43.51 12.1738 43.7453 11.8291 44.0408 11.5402L46.3885 9.1925C46.5058 9.07523 46.5717 8.91617 46.5717 8.75032C46.5717 8.58446 46.5058 8.4254 46.3885 8.30813C46.2712 8.19085 46.1122 8.12497 45.9463 8.12497C45.7805 8.12497 45.6214 8.19085 45.5041 8.30813L43.1565 10.6566C42.336 11.4771 41.875 12.5899 41.875 13.7503C41.875 14.9107 42.336 16.0236 43.1565 16.8441C43.977 17.6646 45.0898 18.1255 46.2502 18.1255C47.4106 18.1255 48.5235 17.6646 49.344 16.8441L51.6924 14.4948C51.8096 14.3776 51.8754 14.2186 51.8753 14.0528C51.8752 13.887 51.8093 13.728 51.692 13.6109C51.5747 13.4937 51.4157 13.4279 51.2499 13.428C51.0842 13.4281 50.9252 13.494 50.808 13.6113Z" fill="#FF5733"/>
<line x1="64" y1="9.25" x2="100" y2="9.25" stroke="#FF8C66" stroke-width="1.5" stroke-dasharray="5 5"/>
</svg>
